<?xml version="1.0" encoding="UTF-8"?>
<svg width="14px" height="12px" viewBox="0 0 14 12" version="1.1" xmlns="http://www.w3.org/2000/svg" xmlns:xlink="http://www.w3.org/1999/xlink">
    <title>星形</title>
    <g id="CPM-Live-V2" stroke="none" stroke-width="1" fill="none" fill-rule="evenodd">
        <g id="CPM-LiveV2备份11备份-7" transform="translate(-188.000000, -250.000000)" stroke="#333333">
            <g id="编组-4" transform="translate(0.000000, 88.000000)">
                <path d="M194.739331,162.619352 C194.955058,162.552641 195.196235,162.568228 195.411728,162.681923 C195.568935,162.764867 195.697426,162.893357 195.78037,163.050565 L195.78037,163.050565 L196.773514,164.932922 C196.990554,165.34429 197.386144,165.631703 197.844447,165.711001 L197.844447,165.711001 L199.941573,166.073856 C200.181653,166.115396 200.382168,166.250315 200.512277,166.434869 C200.642386,166.619423 200.702091,166.853612 200.660551,167.093692 C200.630247,167.268836 200.54775,167.430744 200.423868,167.558208 L200.423868,167.558208 L198.940539,169.084424 C198.616374,169.417961 198.465272,169.883005 198.531478,170.343381 L198.531478,170.343381 L198.83443,172.449996 C198.869112,172.691162 198.802759,172.923555 198.667444,173.104326 C198.532128,173.285098 198.327851,173.414249 198.086685,173.448931 C197.910748,173.474232 197.731272,173.445806 197.571765,173.367376 L197.571765,173.367376 L195.661873,172.428272 C195.244488,172.223042 194.755512,172.223042 194.338127,172.428272 L194.338127,172.428272 L192.428235,173.367376 C192.209589,173.474885 191.968066,173.483592 191.754328,173.410761 C191.540589,173.33793 191.354634,173.183561 191.247125,172.964915 C191.168695,172.805408 191.140269,172.625932 191.16557,172.449996 L191.16557,172.449996 L191.468522,170.343381 C191.534728,169.883005 191.383626,169.417961 191.059461,169.084424 L191.059461,169.084424 L189.576132,167.558208 C189.406319,167.383486 189.323403,167.156475 189.326621,166.930691 C189.329838,166.704907 189.419189,166.480351 189.593911,166.310539 C189.721375,166.186657 189.883283,166.104161 190.058427,166.073856 L190.058427,166.073856 L192.155553,165.711001 C192.613856,165.631703 193.009446,165.34429 193.226486,164.932922 L193.226486,164.932922 L194.21963,163.050565 C194.333326,162.835072 194.523604,162.686063 194.739331,162.619352 Z" id="星形"></path>
            </g>
        </g>
    </g>
</svg>